<?xml version="1.0" ?><svg viewBox="0 0 64 64" xmlns="http://www.w3.org/2000/svg"><g id="Outline"><g data-name="Outline" id="Outline-2"><path d="M12,31h4a2,2,0,0,0,2-2V25a2,2,0,0,0-2-2H12a2,2,0,0,0-2,2v4A2,2,0,0,0,12,31Zm0-6h4v4H12Z"/><path d="M24,31h4a2,2,0,0,0,2-2V25a2,2,0,0,0-2-2H24a2,2,0,0,0-2,2v4A2,2,0,0,0,24,31Zm0-6h4v4H24Z"/><path d="M36,31h4a2,2,0,0,0,2-2V25a2,2,0,0,0-2-2H36a2,2,0,0,0-2,2v4A2,2,0,0,0,36,31Zm0-6h4v4H36Z"/><path d="M48,31h4a2,2,0,0,0,2-2V25a2,2,0,0,0-2-2H48a2,2,0,0,0-2,2v4A2,2,0,0,0,48,31Zm0-6h4v4H48Z"/><path d="M10,40a2,2,0,0,0,2,2h4a2,2,0,0,0,2-2V36a2,2,0,0,0-2-2H12a2,2,0,0,0-2,2Zm2-4h4v4H12Z"/><path d="M22,39.5a2,2,0,0,0,2,2h4a2,2,0,0,0,2-2v-4a2,2,0,0,0-2-2H24a2,2,0,0,0-2,2Zm2-4h4v4H24Z"/><path d="M34,39.5a2,2,0,0,0,2,2h4a2,2,0,0,0,2-2v-4a2,2,0,0,0-2-2H36a2,2,0,0,0-2,2Zm2-4h4v4H36Z"/><path d="M46,39.5a2,2,0,0,0,2,2h4a2,2,0,0,0,2-2v-4a2,2,0,0,0-2-2H48a2,2,0,0,0-2,2Zm2-4h4v4H48Z"/><path d="M10,50a2,2,0,0,0,2,2h4a2,2,0,0,0,2-2V46a2,2,0,0,0-2-2H12a2,2,0,0,0-2,2Zm2-4h4v4H12Z"/><path d="M22,50a2,2,0,0,0,2,2h4a2,2,0,0,0,2-2V46a2,2,0,0,0-2-2H24a2,2,0,0,0-2,2Zm2-4h4v4H24Z"/><path d="M34,50a2,2,0,0,0,2,2h4a2,2,0,0,0,2-2V46a2,2,0,0,0-2-2H36a2,2,0,0,0-2,2Zm2-4h4v4H36Z"/><path d="M54,6H51V5.5a3.5,3.5,0,0,0-7,0V6H35.5V5.5a3.5,3.5,0,0,0-7,0V6H20V5.5a3.5,3.5,0,0,0-7,0V6H10a5,5,0,0,0-5,5V42a1,1,0,0,0,2,0V20H57V44a1,1,0,0,1-1,1H51a5,5,0,0,0-5,5v5a1,1,0,0,1-1,1l-35-.06a3,3,0,0,1-3-3V50a1,1,0,0,0-2,0v7a5,5,0,0,0,5,5H54a5,5,0,0,0,5-5V11A5,5,0,0,0,54,6Zm-8-.5a1.5,1.5,0,0,1,3,0v4a1.5,1.5,0,0,1-3,0Zm-15.5,0a1.5,1.5,0,0,1,3,0v4a1.5,1.5,0,0,1-3,0ZM15,5.5a1.5,1.5,0,0,1,3,0v4a1.5,1.5,0,0,1-3,0ZM7,18V11a3,3,0,0,1,3-3h3V9.5a3.5,3.5,0,0,0,7,0V8h8.5V9.5a3.5,3.5,0,0,0,7,0V8H44V9.5a3.5,3.5,0,0,0,7,0V8h3a3,3,0,0,1,3,3v7ZM48,50a3,3,0,0,1,3-3h4.59L48,54.59Zm6,10H10a3,3,0,0,1-3-3.09,4.9,4.9,0,0,0,3,1L45.33,58a5,5,0,0,0,3.55-1.47L57,48.42V57A3,3,0,0,1,54,60Z"/><circle cx="6" cy="46" r="1"/></g></g></svg>